<?xml version="1.0" encoding="UTF-8"?>
<svg id="Fills" xmlns="http://www.w3.org/2000/svg" viewBox="0 0 2700 2700">
  <defs>
    <style>
      .cls-1 {
        fill: #d0d85f;
      }

      .cls-2 {
        fill: #d85f93;
      }

      .cls-3 {
        fill: #d8a45f;
      }

      .cls-4 {
        fill: #906b4d;
      }

      .cls-5 {
        fill: #93d85f;
      }

      .cls-6 {
        fill: none;
        stroke: #231f20;
        stroke-linecap: round;
        stroke-linejoin: round;
        stroke-width: 8.5px;
      }
    </style>
  </defs>
  <g id="Sides">
    <g>
      <path class="cls-1" d="M995.53,641.56c-40.44-35.56-84.15-78.09-128.34-128.36-49.3-56.09-89.24-110.5-121.36-159.63,32.19-27.65,74.5-59.3,127.49-88.54,49.65-27.39,91.09-52.14,129.73-64.52,4.58,54.42,10.71,129.06,31.62,202.65,21.21,74.65,51.94,135.22,77.03,184.35,4.93,48.18,6.38,97.18,11.31,145.36-118.85,135.71-192.74,258.74-246.63,348.68-127.42,212.64-432.29,702.19-286.14,1196.08,23.01,77.76,53.83,138.18,74.26,176.77-39.79-20.34-241.36-64.61-374.85-269.87-22.54-34.66-140.29-223.11-94.98-448.85,33-164.41,136.28-267.8,337.03-468.77,99.16-99.26,142.4-133.26,259.23-258.22,93.18-99.66,163.54-179.16,207.41-237.93-.94-43.06-1.87-86.13-2.81-129.19Z"/>
      <path class="cls-1" d="M1718.59,635.58c40.44-35.56,74.79-71.26,118.98-121.53,49.3-56.09,94-112.73,126.13-161.87-32.19-27.65-67.72-56.86-120.71-86.09-49.65-27.39-91.09-52.14-129.73-64.52-4.58,54.42-10.71,129.06-31.62,202.65-21.21,74.65-51.94,135.22-77.03,184.35-4.93,48.18-6.38,97.18-11.31,145.36,118.85,135.71,196.44,256.63,246.63,348.68,123.77,227.03,427.71,703.35,281.56,1197.24-23.01,77.76-49.26,137.02-69.68,175.61,39.79-20.34,235.94-65.83,369.43-271.1,22.54-34.66,137.73-221.58,92.43-447.32-33-164.41-125.49-270.95-329.05-469.07-99.89-97.23-145.96-133.12-262.78-258.08-93.18-99.66-164.63-180.44-208.5-239.21.94-43.06,4.33-92.02,5.27-135.09Z"/>
    </g>
  </g>
  <path id="Center" class="cls-3" d="M1111.7,587.5c3.77,48.45,7.54,96.9,11.31,145.36-156.62,193.28-374.87,503.41-496.68,875.49-50.72,154.93-67.31,267.43-67.4,375.83-.17,207.48,60.13,372.06,105.58,470.22,50.61,13.8,121.4,31.29,206.93,46.55,195.83,34.94,345.77,36.22,486.13,36.77,155.99.6,300.12.44,489.19-34.21,85.07-15.59,155.24-33.77,205.04-48.05,57.01-121.46,81.01-228.13,92.14-302.23,45.78-304.72-52.72-546.75-89.86-634.83-8.33-19.76-38.55-70.15-73.53-147.06-26.81-58.95-32.9-79.2-56.6-128.6-22.7-47.33-41.74-79.68-78.89-142.47-48.82-82.51-91.2-154.13-156.26-243.66-37.47-51.56-70.91-93.18-95.51-122.69,3.77-48.45,7.54-96.9,11.31-145.36,24.37-45.98,50.39-104.21,71.08-173.83,24.33-81.87,34.07-155.21,37.57-213.17-73.06-29.15-192.09-66.3-342.63-68.46-163.41-2.34-292.11,37.57-367.58,67.41,4.09,55.39,13.72,123.68,35.11,199.67,21.22,75.35,48.35,138.19,73.54,187.33Z"/>
  <g id="Petals">
    <g>
      <path class="cls-5" d="M1096.92,1618.29c-.85-.19-1.68-.37-2.5-.54-6.52.86-16.31,2.29-28.09,4.6-116.32,22.74-160.36,78.33-235.91,117.44-102.23,52.92-180.7,33.52-255.06,48.27-34.36,6.82-67.85,20.93-102.39,52.84-17.53,16.2-29.75,31.82-37.27,42.38,18.69-52.5,56.42-133.04,133.43-202.3,14.37-12.93,29.14-24.59,44.18-35.1,186.16-130.05,413.49-83.21,443.75-76.47,9.19,4.09,18.38,8.17,27.57,12.26-7.54-.97-16.2-1.6-25.79-1.45-7.34.11-14.09.67-20.17,1.45,8.2,2.63,18.44,6.75,29.37,13.36,12.84,7.76,22.33,16.36,28.88,23.26Z"/>
      <path class="cls-5" d="M1104.63,1566.69c-5.76,1.71-13.07,3.34-21.62,4-10.36.79-19.24-.09-25.95-1.28-30.26-6.74-257.59-53.58-443.75,76.47-15.04,10.51-29.81,22.17-44.18,35.1-77.01,69.26-114.74,149.8-133.43,202.3,1.4-37.5,11.13-175.99,121.02-289.53,12.85-13.27,50.03-49.94,106.05-81.14,57.67-32.13,135.3-58.47,226.88-47.54,111.56,13.31,186.25,75.04,214.98,101.62Z"/>
      <path class="cls-5" d="M1609.88,1618.29c.85-.19,1.68-.37,2.5-.54,6.52.86,16.31,2.29,28.09,4.6,116.32,22.74,160.36,78.33,235.91,117.44,102.23,52.92,180.7,33.52,255.06,48.27,34.36,6.82,67.85,20.93,102.39,52.84,17.53,16.2,29.75,31.82,37.27,42.38-18.69-52.5-56.42-133.04-133.43-202.3-14.37-12.93-29.14-24.59-44.18-35.1-186.16-130.05-413.49-83.21-443.75-76.47-9.19,4.09-18.38,8.17-27.57,12.26,7.54-.97,16.2-1.6,25.79-1.45,7.34.11,14.09.67,20.17,1.45-8.2,2.63-18.44,6.75-29.37,13.36-12.84,7.76-22.33,16.36-28.88,23.26Z"/>
      <path class="cls-5" d="M1602.17,1566.69c5.76,1.71,13.07,3.34,21.62,4,10.36.79,19.24-.09,25.95-1.28,30.26-6.74,257.59-53.58,443.75,76.47,15.04,10.51,29.81,22.17,44.18,35.1,77.01,69.26,114.74,149.8,133.43,202.3-1.4-37.5-11.13-175.99-121.02-289.53-12.85-13.27-50.03-49.94-106.05-81.14-57.67-32.13-135.3-58.47-226.88-47.54-111.56,13.31-186.25,75.04-214.98,101.62Z"/>
    </g>
  </g>
  <g id="Tallo">
    <path class="cls-4" d="M1353.4,1712.73c26.42-29.54,69.72-70.6,132.85-103.66,43.7-22.89,84.28-35.33,115.92-42.38l41.56,3.6-21.56,11.38h45.96s-58.25,36.62-58.25,36.62c-31.62,6.93-81.18,22-132.82,57.16-47.16,32.12-77.64,68.45-95.49,93.45,15.34,256.03,30.67,512.07,46.01,768.1h-148.36c15.34-256.03,30.67-512.07,46.01-768.1-17.85-25-48.33-61.33-95.49-93.45-51.64-35.16-101.2-50.23-132.82-57.16l-58.25-36.62h45.96l-21.18-9.42,41.18-5.56c31.64,7.05,72.22,19.49,115.92,42.38,63.13,33.06,106.43,74.12,132.85,103.66"/>
  </g>
  <g id="Lazo">
    <g>
      <g id="Lazos">
        <g>
          <path class="cls-2" d="M1655.44,1178.61c-7.67,21.95-68.56,203.17-41.54,377.64.7,4.53,1.46,9.05,2.28,13.57,2.17,11.9,4.76,23.75,7.84,35.49,1.28,4.96,2.66,9.89,4.13,14.8,11.9,39.89,29.59,78.29,54.86,113.06,16.16,22.22,31.99,38.26,41.96,47.66-9.07-2.11-22.52-6.4-36.6-15.75-10.32-6.86-17.83-14.33-22.97-20.34.67,6,1.51,12.19,2.55,18.56,2.65,16.21,6.18,31.11,10.13,44.59-32.34-41.5-72.87-102.52-102.21-180.48-5.92-15.7-11.38-32.09-16.22-49.14-8.97-31.58-15.84-65.45-19.61-101.46-9.33-89.2,3.4-162.84,9.7-193.51,27.69-134.88,81.58-171.84,116.93-305.88,7.92-30.04,16.07-69.32,20.11-117.24,2.35-27.92,3.31-58.79,2.02-92.46l21.45,4c9.47,29.04,20.76,72.88,22.55,126.55.29,8.77.31,17.21.08,25.37-2.85,100.37-43.5,157.79-77.44,254.97Z"/>
          <path class="cls-2" d="M1944.12,1502.19c8.51,14.13,17.02,28.25,25.53,42.38-25.08-13.41-60.59-36.08-94.04-72.93-2.7-2.97-5.31-5.96-7.85-8.97-65.77-77.84-79.32-165.66-84.37-201.48-13.62-96.64,9.79-153.88,16.98-236.73,2.5-28.74,3.04-60.57-.59-98.19-2.25-23.29-5.94-47.07-13.77-69.29-7.3-20.66-18.18-39.95-34.84-56.27-15.53-15.19-32.97-24.76-37.85-30.04.95-.87,2.63-2.44,4.7-4.67,14.32-.25,51.41,9.37,79.72,29.13,29.73,20.75,60.46,60.13,74.85,160.18.2,1.37.39,2.75.58,4.14,10.88,79.4,2.62,130.15-5.83,176.38-6.84,37.37-13.8,71.79-10.88,115.98,3.7,56.05,23.64,133,96.64,223.4,13.63,16.88,29.11,34.23,46.68,52l-55.66-25.02Z"/>
          <path class="cls-2" d="M1718.02,766c-2.07,2.23-3.75,3.8-4.7,4.67-1.1-1.2-1.56-2.18-1.2-2.95.51-1.09,2.6-1.67,5.9-1.72Z"/>
        </g>
      </g>
      <path class="cls-2" d="M1712.72,641.48c-58.62-32.72-183-91.83-351.03-94.47-181.35-2.85-315.54,61.61-374.43,94.47h0c-3.9,3.89-28.67,29.49-26.29,68.68,2.12,34.96,24.37,56.19,29.1,60.51h0c80.36-29.18,209.7-65.12,371.62-63.32,150.04,1.66,270.49,35.09,348.22,63.32,8.21-8.8,27.41-32.62,29.11-60.51,2.37-39.19-22.4-64.79-26.3-68.68"/>
    </g>
  </g>
  <g id="BolsaColor1">
    <g>
      <path class="cls-6" d="M1965.83,353.48c-35.19-28.9-118.29-98.57-252.57-151.92-96.62-38.4-216.21-68.34-354.93-68.56-138.7-.22-258.42,29.34-355.28,67.51-135.96,53.56-226.89,124.08-262.08,152.97,22.77,34.09,48.44,69.55,77.36,105.7,58.18,72.7,117.35,132.95,172.34,182.3-3.9,3.89-28.67,29.49-26.29,68.68,2.12,34.96,24.37,56.19,29.1,60.51-49.09,59.54-125.13,149.2-222.89,254.04C449.86,1372.86,64.27,1563.78,211.95,2032.71c73.13,232.22,249.1,356.52,456.13,423.74,196.19,63.71,420.26,76.14,611.14,80.55,26.56.62,52.47,1.08,77.58,1.5,2.67.04,8.01.04,10.68,0,396-6.63,975.29-22.9,1127.37-505.79,147.68-468.93-237.91-659.85-558.64-1008-22.37-23.99-43.6-47.18-63.62-69.4"/>
      <path class="cls-6" d="M1965.83,353.48c-22.77,34.09-48.44,69.55-77.36,105.7-58.18,72.7-117.35,132.95-172.34,182.3,3.9,3.89,28.67,29.49,26.3,68.68-1.7,27.89-16.2,47.04-24.41,55.84"/>
      <path class="cls-6" d="M1713.32,770.67c19.91,24.15,44.25,53.25,72.69,86.31"/>
      <path class="cls-6" d="M990.67,641.47c26.23-14.63,67.4-35.54,121.03-53.97,66.76-22.96,152.83-42.08,253.4-40.5,168.03,2.65,292.41,61.75,351.03,94.47"/>
      <path class="cls-6" d="M993.48,770.66c35.34-12.83,80.14-26.96,133.02-38.62,67.38-14.86,147.87-25.7,238.6-24.7,83.28.93,157.45,11.64,220.26,25.82,50.34,11.36,93.38,24.94,127.96,37.5"/>
      <path class="cls-6" d="M1111.7,587.5c-28.36-53.25-59.59-124.16-81.58-211.05-16.73-66.11-24.18-125.96-27.07-175.94h0"/>
      <path class="cls-6" d="M1604.67,587.5c28.36-53.25,59.59-124.16,81.58-211.05,16.61-65.65,24.07-125.13,27.01-174.89.02-.36.04-.71.06-1.06"/>
      <path class="cls-6" d="M662.77,1512.61c27.76-67.45,58.21-132.82,88.03-196.84,70.21-150.71,186.15-360.86,375.7-583.73"/>
      <path class="cls-6" d="M575.36,1788.06c-23.25,113.68-30.03,234.51-8.39,365.16,21.78,131.45,66.06,235.03,101.11,303.23"/>
      <path class="cls-6" d="M1732.88,923.64c24.19,34.37,46.65,68.05,67.49,100.82"/>
      <path class="cls-6" d="M1686.78,860.18c-31.21-41.64-64.95-84.09-101.42-127.02-.31-.37-.63-.75-.95-1.12"/>
      <path class="cls-6" d="M1867.34,1135.83c37.45,66.03,67.96,126.69,92.77,179.94,30.27,64.98,61.18,131.34,89.28,199.87"/>
      <path class="cls-6" d="M2135.74,1788.96c23.1,113.41,29.79,233.95,8.2,364.26-21.77,131.45-66.05,235.03-101.1,303.23"/>
    </g>
  </g>
  <g id="Petalo">
    <path class="cls-6" d="M1096.92,1618.29c-.85-.19-1.68-.37-2.5-.54-6.52.86-16.31,2.29-28.09,4.6-116.32,22.74-160.36,78.33-235.91,117.44-102.23,52.92-180.7,33.52-255.06,48.27-34.36,6.82-67.85,20.93-102.39,52.84-17.53,16.2-29.75,31.82-37.27,42.38,18.69-52.5,56.42-133.04,133.43-202.3,14.37-12.93,29.14-24.59,44.18-35.1,186.16-130.05,413.49-83.21,443.75-76.47,9.19,4.09,18.38,8.17,27.57,12.26-7.54-.97-16.2-1.6-25.79-1.45-7.34.11-14.09.67-20.17,1.45,8.2,2.63,18.44,6.75,29.37,13.36,12.84,7.76,22.33,16.36,28.88,23.26Z"/>
    <path class="cls-6" d="M1096.92,1618.29c31.62,6.93,81.18,22,132.82,57.16,47.16,32.12,77.64,68.45,95.49,93.45-15.34,256.03-30.67,512.07-46.01,768.1"/>
    <path class="cls-6" d="M1104.63,1566.69c-5.76,1.71-13.07,3.34-21.62,4-10.36.79-19.24-.09-25.95-1.28-30.26-6.74-257.59-53.58-443.75,76.47-15.04,10.51-29.81,22.17-44.18,35.1-77.01,69.26-114.74,149.8-133.43,202.3,1.4-37.5,11.13-175.99,121.02-289.53,12.85-13.27,50.03-49.94,106.05-81.14,57.67-32.13,135.3-58.47,226.88-47.54,111.56,13.31,186.25,75.04,214.98,101.62Z"/>
    <path class="cls-6" d="M1613.9,1556.25c34.68-29.7,104.53-79.4,203.25-91.18,17.39-2.07,34.27-2.81,50.61-2.4,2.54,3.01,5.15,6,7.85,8.97,33.45,36.85,68.96,59.52,94.04,72.93-8.51-14.13-17.02-28.25-25.53-42.38l55.66,25.02c-17.57-17.77-33.05-35.12-46.68-52,36.43,9.89,68.75,24.59,96.29,40.43,53.03,30.51,88.26,65.26,100.7,78.11,109.88,113.54,119.61,252.03,121.02,289.53-18.7-52.5-56.43-133.04-133.44-202.3-12.67-11.39-25.64-21.8-38.83-31.29-187.12-134.76-418.54-87.08-449.1-80.28-6.71,1.19-15.59,2.07-25.95,1.28-2.66-.21-5.2-.5-7.61-.87"/>
    <path class="cls-6" d="M1104.63,1566.69c31.64,7.05,72.22,19.49,115.92,42.38,63.13,33.06,106.43,74.12,132.85,103.66,26.43-29.54,69.73-70.6,132.86-103.66,25.97-13.61,50.84-23.52,73.39-30.8"/>
    <path class="cls-6" d="M1427.58,2537c-15.33-256.03-30.67-512.07-46.01-768.1,17.85-25,48.33-61.33,95.49-93.45,35.67-24.29,70.35-38.99,98.81-48.04"/>
    <path class="cls-6" d="M1624.02,1605.31c4.32-3.45,9.22-6.94,14.75-10.28,10.92-6.61,21.16-10.73,29.36-13.36-6.08-.78-12.83-1.34-20.17-1.45-9.59-.15-18.25.48-25.79,1.45,9.19-4.09,18.38-8.17,27.57-12.26,30.56-6.8,261.98-54.48,449.1,80.28,13.19,9.49,26.16,19.9,38.83,31.29,77.01,69.26,114.74,149.8,133.44,202.3-7.53-10.56-19.75-26.18-37.28-42.38-33.1-30.57-65.23-44.81-98.09-51.94-75.64-16.43-155.16,4.78-259.36-49.17-75.54-39.11-119.59-94.7-235.91-117.44-4.41-.86-8.53-1.6-12.32-2.24"/>
  </g>
  <g id="Lazos-2" data-name="Lazos">
    <path class="cls-6" d="M1655.44,1178.61c-7.67,21.95-68.56,203.17-41.54,377.64.7,4.53,1.46,9.05,2.28,13.57,2.17,11.9,4.76,23.75,7.84,35.49,1.28,4.96,2.66,9.89,4.13,14.8,11.9,39.89,29.59,78.29,54.86,113.06,16.16,22.22,31.99,38.26,41.96,47.66-9.07-2.11-22.52-6.4-36.6-15.75-10.32-6.86-17.83-14.33-22.97-20.34.67,6,1.51,12.19,2.55,18.56,2.65,16.21,6.18,31.11,10.13,44.59-32.34-41.5-72.87-102.52-102.21-180.48-5.92-15.7-11.38-32.09-16.22-49.14-8.97-31.58-15.84-65.45-19.61-101.46-9.33-89.2,3.4-162.84,9.7-193.51,27.69-134.88,81.58-171.84,116.93-305.88,7.92-30.04,16.07-69.32,20.11-117.24,2.35-27.92,3.31-58.79,2.02-92.46l21.45,4c9.47,29.04,20.76,72.88,22.55,126.55.29,8.77.31,17.21.08,25.37-2.85,100.37-43.5,157.79-77.44,254.97Z"/>
    <path class="cls-6" d="M1944.12,1502.19c8.51,14.13,17.02,28.25,25.53,42.38-25.08-13.41-60.59-36.08-94.04-72.93-2.7-2.97-5.31-5.96-7.85-8.97-65.77-77.84-79.32-165.66-84.37-201.48-13.62-96.64,9.79-153.88,16.98-236.73,2.5-28.74,3.04-60.57-.59-98.19-2.25-23.29-5.94-47.07-13.77-69.29-7.3-20.66-18.18-39.95-34.84-56.27-15.53-15.19-32.97-24.76-37.85-30.04.95-.87,2.63-2.44,4.7-4.67,14.32-.25,51.41,9.37,79.72,29.13,29.73,20.75,60.46,60.13,74.85,160.18.2,1.37.39,2.75.58,4.14,10.88,79.4,2.62,130.15-5.83,176.38-6.84,37.37-13.8,71.79-10.88,115.98,3.7,56.05,23.64,133,96.64,223.4,13.63,16.88,29.11,34.23,46.68,52l-55.66-25.02Z"/>
    <path class="cls-6" d="M1718.02,766c-2.07,2.23-3.75,3.8-4.7,4.67-1.1-1.2-1.56-2.18-1.2-2.95.51-1.09,2.6-1.67,5.9-1.72Z"/>
  </g>
</svg>